<svg width="16" height="16" viewBox="0 0 16 16" fill="none" xmlns="http://www.w3.org/2000/svg">
<g clip-path="url(#clip0_376_4)">
<path d="M6.97851 7.02149L7.33206 7.37504L7.58768 7.11943L7.42507 6.79658L6.97851 7.02149ZM0.5 13.5L0.146447 13.1464L0 13.2929V13.5H0.5ZM0.5 15.5H0V16H0.5V15.5ZM4.5 15.5V16H5V15.5H4.5ZM4.5 13.5V13H4V13.5H4.5ZM6.5 13.5V14H7V13.5H6.5ZM6.5 11.5V11H6V11.5H6.5ZM8.5 11.5V12H9V11.5H8.5ZM8.5 9.5L8.14645 9.14645L8 9.29289V9.5H8.5ZM8.97851 9.02149L9.20342 8.57493L8.88057 8.41232L8.62496 8.66794L8.97851 9.02149ZM15 5C15 7.20914 13.2091 9 11 9V10C13.7614 10 16 7.76142 16 5H15ZM11 1C13.2091 1 15 2.79086 15 5H16C16 2.23858 13.7614 0 11 0V1ZM7 5C7 2.79086 8.79086 1 11 1V0C8.23858 0 6 2.23858 6 5H7ZM7.42507 6.79658C7.15328 6.25695 7 5.6471 7 5H6C6 5.80685 6.19149 6.57042 6.53195 7.2464L7.42507 6.79658ZM0.853553 13.8536L7.33206 7.37504L6.62496 6.66794L0.146447 13.1464L0.853553 13.8536ZM1 15.5V13.5H0V15.5H1ZM4.5 15H0.5V16H4.5V15ZM4 13.5V15.5H5V13.5H4ZM6.5 13H4.5V14H6.5V13ZM6 11.5V13.5H7V11.5H6ZM8.5 11H6.5V12H8.5V11ZM8 9.5V11.5H9V9.5H8ZM8.62496 8.66794L8.14645 9.14645L8.85355 9.85355L9.33206 9.37504L8.62496 8.66794ZM11 9C10.3529 9 9.74305 8.84672 9.20342 8.57493L8.7536 9.46805C9.42958 9.80851 10.1931 10 11 10V9Z" fill="#E53999"/>
<circle cx="12" cy="4" r="1.25" fill="#E53999"/>
</g>
<defs>
<clipPath id="clip0_376_4">
<rect width="16" height="16" fill="white"/>
</clipPath>
</defs>
</svg>
