<svg width="20" height="20" viewBox="0 0 20 20" fill="none" xmlns="http://www.w3.org/2000/svg">
<path d="M8.89528 8.10472L9.33722 8.54666L9.61451 8.26937L9.48547 7.89906L8.89528 8.10472ZM1.625 15.375L1.18306 14.9331L1 15.1161V15.375H1.625ZM1.625 18.375H1V19H1.625V18.375ZM5.625 18.375V19H6.25V18.375H5.625ZM5.625 16.375V15.75H5V16.375H5.625ZM8.375 16.375V17H9V16.375H8.375ZM8.375 14.375V13.75H7.75V14.375H8.375ZM10.625 14.375V15H11.25V14.375H10.625ZM10.625 12.375L10.1831 11.9331L10 12.1161V12.375H10.625ZM11.8953 11.1047L12.1009 10.5145L11.7306 10.3855L11.4533 10.6628L11.8953 11.1047ZM17.75 6.5C17.75 8.84721 15.8472 10.75 13.5 10.75V12C16.5376 12 19 9.53757 19 6.5H17.75ZM13.5 2.25C15.8472 2.25 17.75 4.15279 17.75 6.5H19C19 3.46243 16.5376 1 13.5 1V2.25ZM9.25 6.5C9.25 4.15279 11.1528 2.25 13.5 2.25V1C10.4624 1 8 3.46243 8 6.5H9.25ZM9.48547 7.89906C9.33309 7.46176 9.25 6.99125 9.25 6.5H8C8 7.13318 8.10725 7.74264 8.30509 8.31038L9.48547 7.89906ZM2.06694 15.8169L9.33722 8.54666L8.45334 7.66278L1.18306 14.9331L2.06694 15.8169ZM2.25 18.375V15.375H1V18.375H2.25ZM5.625 17.75H1.625V19H5.625V17.75ZM5 16.375V18.375H6.25V16.375H5ZM8.375 15.75H5.625V17H8.375V15.75ZM7.75 14.375V16.375H9V14.375H7.75ZM10.625 13.75H8.375V15H10.625V13.75ZM10 12.375V14.375H11.25V12.375H10ZM11.4533 10.6628L10.1831 11.9331L11.0669 12.8169L12.3372 11.5467L11.4533 10.6628ZM13.5 10.75C13.0088 10.75 12.5382 10.6669 12.1009 10.5145L11.6896 11.6949C12.2574 11.8927 12.8668 12 13.5 12V10.75Z" fill="#E53999"/>
<circle cx="14.5" cy="5.5" r="1.5" fill="#E53999"/>
</svg>
