<?xml version="1.0" ?><svg baseProfile="tiny" height="24px" id="Layer_1" version="1.2" viewBox="0 0 24 24" width="24px" xml:space="preserve" xmlns="http://www.w3.org/2000/svg" xmlns:xlink="http://www.w3.org/1999/xlink"><path d="M22.711,9.796C22.67,9.755,18.656,5.7,16.729,3.65C16.309,3.236,15.73,3,15.143,3C13.961,3,13,3.896,13,5H5  C4.447,5,4,5.448,4,6v14c0,0.552,0.447,1,1,1h14c0.553,0,1-0.448,1-1v-6.045c1.434-1.461,2.688-2.729,2.711-2.751  C23.098,10.814,23.098,10.186,22.711,9.796z M15.279,15.941C15.257,15.968,15.214,16,15.143,16c-0.074,0-0.121-0.023-0.144-0.04V13  v-1h-1c-1.771,0.034-3.336,0.68-4.753,1.958C9.676,11.743,10.846,9,13.999,9h1V5.042C15.027,5.021,15.07,5,15.143,5  c0.09,0,0.152,0.05,0.154,0.05c1.436,1.525,4.051,4.187,5.297,5.45C20.341,10.757,16.252,14.922,15.279,15.941z M6,19V7h8  c0,0.348,0,0.695,0,1c-4.66,0-6,4.871-6,8.5V17c1.691-2.578,3.6-3.953,6-4c0,1.045,0,2.838,0,3c0,0.551,0.512,1,1.143,1  c0.364,0,0.676-0.158,0.883-0.391c0.539-0.565,1.242-1.291,1.976-2.043V19H6z"/></svg>