<?xml version="1.0" ?><svg baseProfile="tiny" height="24px" id="Layer_1" version="1.2" viewBox="0 0 24 24" width="24px" xml:space="preserve" xmlns="http://www.w3.org/2000/svg" xmlns:xlink="http://www.w3.org/1999/xlink"><path d="M8,16.5V17c1.691-2.578,3.6-3.953,6-4c0,1.045,0,2.838,0,3c0,0.551,0.511,1,1.143,1c0.364,0,0.675-0.158,0.883-0.391  C17.959,14.58,22,10.5,22,10.5s-4.041-4.082-5.975-6.137C15.817,4.158,15.507,4,15.143,4C14.511,4,14,4.447,14,5  c0,0.168,0,1.877,0,3C9.34,8,8,12.871,8,16.5z"/><path d="M5,21h14c0.553,0,1-0.448,1-1v-6.046c-0.664,0.676-1.364,1.393-2,2.047V19H6V7h7V5H5C4.447,5,4,5.448,4,6v14  C4,20.552,4.447,21,5,21z"/></svg>