<svg id="Layer_1" data-name="Layer 1" xmlns="http://www.w3.org/2000/svg" viewBox="0 0 32 17.4"><defs><style>.cls-1{opacity:0.56;}</style></defs><title>bibtex-menu</title><g id="g2277"><path id="path18" d="M19.54,7.26v.46c1.05,0,1.39,0,1.81.63L25,13.76l-3.33,4.86a2.84,2.84,0,0,1-2.42,1.2v.46c.3,0,.73,0,1.13,0C20,22.67,19.59,24,16.49,24H13.84c-.77,0-.8-.09-.8-.75V17.89h1.8c1.8,0,2,.66,2,2.28h.31v-5h-.31c0,1.58-.17,2.23-2,2.23H13V12.62c0-.65,0-.74.8-.74h2.61c2.95,0,3.3,1.17,3.57,3.7h.34l-.46-4.23H11.66l-.31-4.06H.32L0,11.51H.34C.59,8.35.86,7.79,3.82,7.79H4.88c.36.06.36.29.36.73v10.4c0,.69-.06.9-1.66.9H3v.46c.92,0,1.87,0,2.81,0s1.89,0,2.81,0v-.46H8.12c-1.59,0-1.65-.21-1.65-.9V8.52c0-.42,0-.65.35-.73h1c2.89,0,3.2.47,3.44,3.56H10.23v.53c1.35,0,1.57,0,1.57.86V23.12c0,.86-.21.86-1.57.86v.46h9.94l.6-4.19h.14c.51,0,1.41,0,1.89,0v-.46a.74.74,0,0,1-.77-.74.78.78,0,0,1,.2-.52l3.05-4.46L28.6,19c.15.21.15.27.15.33s-.17.48-.84.52v.46c.61,0,1.55,0,2.18,0s1.45,0,1.91,0v-.46c-1.22,0-1.42-.1-1.8-.64L26,13.05,28.83,9a2.67,2.67,0,0,1,2.43-1.25V7.26c-.44,0-1.17,0-1.62,0-.63,0-1.42,0-1.89,0v.46a.73.73,0,0,1,.76.75.9.9,0,0,1-.23.57L25.76,12.7,22.93,8.56c-.13-.21-.15-.27-.15-.33s.21-.49.84-.51V7.26c-.61,0-1.54,0-2.17,0S20,7.29,19.54,7.26Z" transform="translate(0 -7.26)"/></g><g id="g3674" class="cls-1"><path id="path3676" d="M19.54,7.47v.46c1.05,0,1.39,0,1.81.64L25,14l-3.33,4.85A2.83,2.83,0,0,1,19.29,20v.46c.3,0,.73,0,1.13,0-.38,2.42-.83,3.73-3.93,3.73H13.84c-.77,0-.8-.1-.8-.75V18.11h1.8c1.8,0,2,.66,2,2.27h.31v-5h-.31c0,1.59-.17,2.23-2,2.23H13V12.83c0-.64,0-.74.8-.74h2.61c2.95,0,3.3,1.18,3.57,3.7h.34l-.46-4.22H11.66L11.35,7.5H.32L0,11.72H.34C.59,8.56.86,8,3.82,8H4.88c.36.05.36.29.36.73V19.13c0,.69-.06.9-1.66.9H3v.47c.92,0,1.87,0,2.81,0s1.89,0,2.81,0V20H8.12c-1.59,0-1.65-.21-1.65-.9V8.74c0-.43,0-.66.35-.73h1c2.89,0,3.2.46,3.44,3.56H10.23v.52c1.35,0,1.57,0,1.57.86V23.34c0,.85-.21.85-1.57.85v.47h9.94l.6-4.19h.14c.51,0,1.41,0,1.89,0V20a.75.75,0,0,1-.77-.75.8.8,0,0,1,.2-.52l3.05-4.45L28.6,19.2c.15.21.15.27.15.32s-.17.48-.84.52v.46c.61,0,1.55,0,2.18,0s1.45,0,1.91,0V20c-1.22,0-1.42-.09-1.8-.63L26,13.27l2.82-4.09a2.71,2.71,0,0,1,2.43-1.25V7.47c-.44,0-1.17,0-1.62,0-.63,0-1.42,0-1.89,0v.46a.73.73,0,0,1,.76.75.92.92,0,0,1-.23.58l-2.52,3.65L22.93,8.78c-.13-.21-.15-.27-.15-.33s.21-.5.84-.52V7.47c-.61,0-1.54,0-2.17,0S20,7.51,19.54,7.47Z" transform="translate(0 -7.26)"/></g></svg>