<?xml version="1.0" standalone="no"?> <!DOCTYPE svg PUBLIC "-//W3C//DTD SVG 1.0//EN" "http://www.w3.org/TR/2001/REC-SVG-20010904/DTD/svg10.dtd" > <svg xmlns="http://www.w3.org/2000/svg" width="100%" height="100%">
<defs >
<font id="cmunrm" horiz-adv-x="441" ><font-face
    font-family="CMU Serif"
    units-per-em="1000"
    panose-1="2 0 6 3 0 0 0 0 0 0"
    ascent="935"
    descent="-250"
    alphabetic="0" />
<missing-glyph horiz-adv-x="760" d="M10 10V765H750V10H10ZM70 112L346 388L70 663V112ZM105 70H655L380 346L105 70ZM105 705L380 429L655 705H105ZM414 388L690 112V663L414 388Z" />
<glyph unicode=" " glyph-name="space" horiz-adv-x="333" />
<glyph unicode="!" glyph-name="exclam" horiz-adv-x="278" d="M85 53Q85 76 101 91T138 106T174 91T190 53Q190 31 174 16T138 1Q115 1 100 16T85 53ZM85 664Q85 688 101 702T138 716T175 702T191 664Q191 662 191 659T190 653L152 211Q150 188 137 188Q126 188
124 215L86 650Q86 652 86 657T85 664Z" />
<glyph unicode="&quot;" glyph-name="quotedbl" horiz-adv-x="500" d="M119 664Q119 689 134 699T165 710Q182 710 197 700T212 664Q212 659 204 583T186 428T177 347H154Q151 378 142 456T126 596T119 664ZM287 663Q287 686 300 698T333 710Q349 710 364 700T379
664Q379 659 372 597T356 457T344 347H322Q320 362 304 508T287 663Z" />
<glyph unicode="#" glyph-name="numbersign" horiz-adv-x="833" d="M57 153Q57 164 83 164H261L308 336H80Q57 336 57 347Q57 359 87 359H315L396 655Q396 656 398 664T401 674T405 682T410 690T416 692Q425 692 425 680Q425 674 419 650L339 359H554L635 655Q636
657 637 664T640 674T643 682T648 689T654 692Q664 692 664 680Q664 678 657 650L577 359H750Q775 359 775 347Q774 336 749 336H570L524 164H751Q775 164 775 153Q775 141 751 141H517L435 -155Q435 -157 433 -164T430 -174T427 -183T422 -190T416 -192Q407 -192
407 -180Q407 -174 413 -150L493 141H278L197 -155Q197 -157 195 -164T192 -174T189 -183T184 -190T178 -192Q168 -192 168 -180Q168 -178 175 -150L255 141H82Q57 141 57 153ZM285 164H500L547 336H332L285 164Z" />
<glyph unicode="$" glyph-name="dollar" horiz-adv-x="500" d="M55 177Q55 204 69 216T101 228Q119 228 133 216T147 183Q147 164 135 151T102 137Q97 137 85 139Q113 31 234 20V319Q233 319 223 321T207 325T189 331T168 339T147 350T124 366T104 386T84 412Q55
458 55 513Q55 587 104 641T234 705V750H265V705Q308 702 341 688T393 655T423 612T439 569T443 530Q443 502 429 491T398 480Q379 480 366 492T352 525Q352 544 364 557T397 571Q403 571 413 569Q383 663 265 674V403Q266 403 276 401T291 397T307 392T326 384T345
375T366 361T385 344T404 322T420 295Q444 248 444 195Q444 116 394 57T265 -10V-55H234V-10Q180 -6 142 15T87 67T62 124T55 177ZM107 543Q107 500 132 469T191 423Q199 419 216 415T234 411V673Q179 667 143 630T107 543ZM265 21Q324 29 358 71T392 165Q392 210
368 246T307 298Q301 301 265 311V21Z" />
<glyph unicode="%" glyph-name="percent" horiz-adv-x="833" d="M56 549Q56 635 100 692T203 750Q239 750 275 718Q356 641 462 641Q582 641 652 736Q664 750 673 750Q681 750 687 744T693 730Q693 724 685 712L179 -41Q168 -56 159 -56Q151 -56 145 -50T139 -36Q139
-29 148 -16L597 653L596 654Q544 619 463 619Q386 619 312 661Q333 609 333 548Q333 464 296 406T203 347Q144 347 100 404T56 549ZM118 595T118 548T125 466T142 413T165 385T187 372T204 369Q245 369 276 420T308 549Q308 625 277 676T204 728Q195 728 187 726T165
713T142 684T125 631ZM499 146Q499 232 543 289T646 347Q700 347 738 289T776 145Q776 61 739 3T646 -56Q587 -56 543 1T499 146ZM561 192T561 145T568 63T585 10T608 -18T630 -31T647 -34Q688 -34 719 17T751 146Q751 222 720 273T647 325Q638 325 630 323T608
310T585 281T568 228Z" />
<glyph unicode="&amp;" glyph-name="ampersand" horiz-adv-x="777" d="M42 128Q42 165 57 189T113 255L204 352Q163 456 163 555Q163 629 205 672T299 716Q324 716 342 703T369 668T382 627T386 587Q386 556 364 517T322 452T264 385Q292 312 347 231T430 118Q494
197 573 336Q579 354 579 356Q579 375 561 387T508 400V431Q548 428 630 428Q672 428 727 431V400Q694 400 672 394T633 372T606 343T578 298Q493 152 446 98Q521 9 584 9Q624 9 659 38T696 121H721Q720 58 679 18T580 -22Q491 -22 404 54Q319 -22 223 -22Q148
-22 95 21T42 128ZM125 160Q125 128 133 96T167 37T231 9Q313 9 385 73Q346 112 293 190Q247 256 213 329Q165 283 145 249T125 160ZM226 578Q226 498 256 409Q361 523 361 588Q361 593 361 600T357 626T349 657T331 682T301 694Q271 694 249 665T226 578Z" />
<glyph unicode="&apos;" glyph-name="quotesingle" horiz-adv-x="278" d="M92 664Q92 689 107 699T138 710Q158 710 171 698T184 664Q184 654 183 649L150 347H127L93 649Q92 654 92 664Z" />
<glyph unicode="(" glyph-name="parenleft" horiz-adv-x="388" d="M99 250Q99 419 162 555Q189 612 226 660T289 729T321 750Q331 750 331 740Q331 735 318 723Q157 559 157 250Q157 -60 314 -218Q331 -235 331 -240Q331 -250 321 -250Q314 -250 290 -230T229
-164T165 -62Q99 74 99 250Z" />
<glyph unicode=")" glyph-name="parenright" horiz-adv-x="388" d="M57 -240Q57 -235 70 -223Q231 -59 231 250Q231 560 76 717Q57 735 57 740Q57 750 67 750Q74 750 98 730T159 664T223 562Q289 426 289 250Q289 81 226 -55Q199 -112 162 -160T99 -229T67 -250Q57
-250 57 -240Z" />
<glyph unicode="*" glyph-name="asterisk" horiz-adv-x="500" d="M65 441Q65 458 88 469L227 535L86 601Q65 611 65 628Q65 638 73 647T92 656Q100 656 114 645L238 555Q223 720 223 725Q223 735 230 742T250 750Q260 750 268 743T276 725L261 555L372 637Q398
656 407 656Q418 656 426 647T434 628Q434 611 411 600L272 534L413 468Q434 458 434 441Q434 431 426 422T407 413Q401 413 391 419Q389 420 368 435T315 475T261 514Q276 349 276 344Q276 334 269 327T249 319Q239 319 231 326T223 344L238 514L98 413Q83 413
75 420T66 432T65 441Z" />
<glyph unicode="+" glyph-name="plus" horiz-adv-x="778" d="M57 238T57 250T81 262Q84 262 89 262T95 261H377V544Q377 545 377 549T376 557Q376 581 388 581T400 557V261H682Q683 261 688 261T696 262Q719 262 719 250T695 238Q692 238 688 238T682 239H400V-58Q400
-81 388 -81T376 -57Q376 -54 376 -50T377 -44V239H95Q94 239 89 239T80 238Q57 238 57 250Z" />
<glyph unicode="," glyph-name="comma" horiz-adv-x="277" d="M86 32T86 53T100 90T139 106Q169 106 186 78T203 1Q203 -51 182 -99T141 -170T112 -193Q102 -193 102 -182Q102 -178 109 -171Q181 -94 181 1Q181 16 179 16L177 14Q160 0 139 0Q114 0 100 16Z" />
<glyph unicode="-" glyph-name="hyphen" horiz-adv-x="333" d="M10 186V245H276V186H10Z" />
<glyph unicode="." glyph-name="period" horiz-adv-x="278" d="M85 32T85 53T100 89T138 105Q160 105 175 91T190 53T174 15T138 0Q115 0 100 16Z" />
<glyph unicode="/" glyph-name="slash" horiz-adv-x="500" d="M57 -236Q57 -231 61 -220L414 723Q414 724 416 729T420 738T425 745T432 748Q442 748 442 736Q442 735 439 723L85 -221Q79 -238 76 -243T66 -248Q57 -248 57 -236Z" />
<glyph unicode="0" glyph-name="zero" horiz-adv-x="500" d="M39 320Q39 467 76 547Q128 666 250 666Q276 666 303 659T364 625T420 554Q460 469 460 320Q460 174 423 94Q369 -22 249 -22Q204 -22 159 1T84 79Q39 162 39 320ZM122 332Q122 181 133 121Q145 56
178 28T249 0Q289 0 322 30T366 125Q377 189 377 332Q377 471 367 527Q354 592 319 618T249 644Q236 644 222 640T188 625T153 586T130 516Q122 462 122 332Z" />
<glyph unicode="1" glyph-name="one" horiz-adv-x="500" d="M89 571V602Q209 602 271 666Q288 666 291 662T294 640V79Q294 49 308 40T387 31H419V0Q384 3 257 3T95 0V31H127Q190 31 205 40T220 79V597Q168 571 89 571Z" />
<glyph unicode="2" glyph-name="two" horiz-adv-x="500" d="M50 0Q50 18 51 23T61 37L253 251Q358 369 358 472Q358 539 323 587T224 635Q180 635 143 608T89 533Q92 534 102 534Q127 534 141 519T155 482Q155 455 138 442T103 429Q96 429 87 430T64 446T50 485Q50
555 103 610T237 666Q329 666 389 612T449 472Q449 442 440 415T419 367T375 313T317 255T233 180L127 77H307Q395 77 402 85Q412 99 424 174H449L421 0H50Z" />
<glyph unicode="3" glyph-name="three" horiz-adv-x="500" d="M42 135Q42 165 59 179T98 193Q121 193 137 178T154 137Q154 109 135 94T88 82Q112 42 156 24T241 6Q284 6 319 43T354 171Q354 248 324 292T235 337H191Q176 337 172 338T167 348Q167 358 182 360Q197
360 221 363Q279 365 310 415Q338 462 338 529Q338 590 309 615T242 641Q207 641 169 627T109 579Q171 579 171 529Q171 507 157 493T120 478Q98 478 84 492T69 530Q69 587 120 626T246 666Q320 666 375 627T430 528Q430 469 391 421T290 352Q366 337 411 286T457
171Q457 93 396 36T244 -22Q161 -22 102 23T42 135Z" />
<glyph unicode="4" glyph-name="four" horiz-adv-x="500" d="M28 165V196L335 665Q343 677 355 677Q366 677 368 673T371 651V196H471V165H371V78Q371 49 383 40T447 31H468V0Q427 3 332 3Q238 3 197 0V31H218Q270 31 282 40T294 78V165H28ZM56 196H300V569L56 196Z" />
<glyph unicode="5" glyph-name="five" horiz-adv-x="500" d="M50 161Q50 191 66 202T99 214Q122 214 135 200T149 165T136 131T99 116Q88 116 82 118Q95 72 135 39T229 6Q296 6 336 71Q360 113 360 208Q360 292 342 334Q314 398 257 398Q176 398 128 328Q122 319
115 319Q105 319 103 324T101 345V641Q101 665 111 665Q115 665 123 662Q186 634 256 634Q328 634 392 663Q397 666 400 666Q410 666 410 655Q410 651 402 640T377 613T338 584T284 561T217 551Q175 551 132 564V369Q184 420 259 420Q339 420 394 356T449 201Q449
107 384 43T231 -22Q151 -22 101 35T50 161Z" />
<glyph unicode="6" glyph-name="six" horiz-adv-x="500" d="M42 316Q42 473 122 569T305 666Q365 666 398 636T432 558Q432 532 417 521T386 510Q368 510 354 522T340 556Q340 601 395 601Q369 641 307 641Q288 641 269 636T224 612T179 564T146 479T132 352V328Q173
427 257 427T399 363T457 204Q457 107 397 43T251 -22Q213 -22 179 -6T112 46T61 151T42 316ZM134 226Q134 128 152 81Q155 73 161 63T179 38T210 15T251 6Q318 6 350 71Q367 107 367 205Q367 305 349 342Q318 404 256 404Q214 404 185 375T145 308T134 226Z" />
<glyph unicode="7" glyph-name="seven" horiz-adv-x="500" d="M56 470L89 676H114Q117 664 122 659T155 649T242 644H485Q485 621 476 609L341 419Q298 359 279 248Q268 174 268 84V33Q268 -22 222 -22T176 33Q176 224 299 409Q312 428 360 496T411 567H204Q113
567 106 561Q96 552 81 470H56Z" />
<glyph unicode="8" glyph-name="eight" horiz-adv-x="500" d="M42 151Q42 263 186 335Q124 377 113 389Q69 438 69 499Q69 569 122 617T250 666Q322 666 376 625T430 517Q430 424 309 362Q389 312 408 291Q457 237 457 168Q457 88 396 33T249 -22Q166 -22 104
26T42 151ZM92 151Q92 89 138 48T250 6Q313 6 360 42T407 132Q407 153 400 171T379 203T357 224T332 242L209 320Q92 255 92 151ZM113 538Q113 490 163 457L287 377Q386 435 386 517Q386 570 346 605T249 641Q194 641 154 612T113 538Z" />
<glyph unicode="9" glyph-name="nine" horiz-adv-x="500" d="M42 441Q42 494 57 530T106 603Q166 666 253 666Q290 666 323 651T387 600T438 495T457 329Q457 174 382 76T206 -22Q142 -22 105 7T67 86Q67 112 81 123T113 134Q131 134 145 122T159 88Q159 70 148
56T107 42Q136 6 205 6Q230 6 255 17T307 57T350 144T367 286V318Q327 218 242 218Q158 218 100 282T42 441ZM132 440Q132 341 150 304Q181 241 243 241Q304 241 334 295T365 421Q365 519 349 562Q319 641 253 641T153 578Q132 541 132 440Z" />
<glyph unicode=":" glyph-name="colon" horiz-adv-x="277" d="M86 356T86 378T101 415T139 431T176 416T192 378T177 341T139 325T102 340ZM86 31T86 53T101 90T139 106T176 91T192 53T177 16T139 0T102 15Z" />
<glyph unicode=";" glyph-name="semicolon" horiz-adv-x="278" d="M85 357T85 378T100 414T138 430Q160 430 175 416T190 378T174 340T138 325Q115 325 100 341ZM86 32T86 53T100 90T139 106Q169 106 186 78T203 1Q203 -51 182 -99T141 -170T112 -193Q102 -193
102 -182Q102 -178 109 -171Q181 -94 181 1Q181 16 179 16L177 14Q160 0 139 0Q114 0 100 16Z" />
<glyph unicode="&lt;" glyph-name="less" horiz-adv-x="778" d="M85 250Q85 258 101 266L656 519Q676 529 681 529Q691 529 691 519Q691 511 668 500L180 276Q150 262 122 250Q150 238 180 224L668 0Q691 -10 691 -19Q691 -29 681 -29Q676 -29 656 -19L101 234Q86
240 85 250Z" />
<glyph unicode="=" glyph-name="equal" horiz-adv-x="778" d="M57 152Q58 164 77 164H690Q719 164 719 153Q719 141 692 141H84Q57 141 57 152ZM57 347Q57 359 78 359H689Q719 359 719 347Q719 336 694 336H77Q57 336 57 347Z" />
<glyph unicode="&gt;" glyph-name="greater" horiz-adv-x="778" d="M85 -19Q85 -13 89 -10T109 0L597 224Q635 242 655 250Q635 258 597 276L109 500Q107 501 103 503T96 506T91 510T87 514T85 519Q85 529 96 529Q101 529 121 519L676 266Q677 266 679 265T684
262T688 259T691 255T692 250Q691 241 663 228L121 -19Q101 -29 96 -29Q85 -29 85 -19Z" />
<glyph unicode="?" glyph-name="question" horiz-adv-x="472" d="M56 572Q56 624 102 664T226 705Q327 705 371 664T415 570Q415 508 367 472Q235 374 235 249V214Q235 203 235 199T231 191T222 187Q214 187 212 191T210 211V256Q210 309 231 370T298 481Q309
492 315 500T326 528T332 576Q332 593 332 603T325 630T309 657T276 675T223 683Q132 683 92 615Q148 615 148 570Q148 550 136 537T102 524Q83 524 70 536T56 572ZM169 31T169 53T184 90T222 106T259 91T275 53T260 16T222 0T185 15Z" />
<glyph unicode="@" glyph-name="at" horiz-adv-x="777" d="M56 347Q56 496 153 600T389 705Q450 705 509 680T615 610T692 494T721 338Q721 293 717 260T703 194T672 145T619 128Q586 128 556 145T519 199Q468 128 387 128Q308 128 249 191T189 347T248 502T387
566Q468 566 524 489Q531 481 547 481H564Q581 481 584 478T588 457V216Q588 150 623 150Q647 150 662 164T684 207T693 264T696 332Q696 418 668 487T593 598T494 661T388 683Q263 683 172 586T81 347Q81 210 170 111T393 11Q529 11 665 75Q670 78 688 78H697Q707
78 710 78T717 75T720 68Q720 58 664 39T574 11Q480 -11 394 -11Q248 -11 152 95T56 347ZM258 430T258 347T297 207T390 150Q457 150 505 219Q519 240 519 262V432Q519 453 506 472Q460 544 390 544Q335 544 297 487Z" />
<glyph unicode="A" glyph-name="A" horiz-adv-x="750" d="M32 0V31Q121 33 144 98L351 696Q355 708 359 712T375 716Q381 716 384 715T390 711T394 705T398 696L614 71Q622 46 638 39T699 31H717V0Q654 3 586 3Q478 3 442 0V31Q525 31 525 61Q525 63 522 75L469
228H222L176 97Q174 93 174 82Q174 61 193 46T249 31V0Q153 3 134 3Q101 3 32 0ZM233 259H458L345 584L233 259Z" />
<glyph unicode="B" glyph-name="B" horiz-adv-x="708" d="M36 0V31H60Q114 31 126 40T139 78V605Q139 634 127 643T60 652H36V683H402Q497 683 560 632T624 514Q624 459 578 415T458 357Q541 348 596 298T651 183Q651 110 588 55T428 0H36ZM222 71Q222 45 229
38T271 31H396Q468 31 509 78T551 184T515 293T410 344H222V71ZM222 366H367Q444 366 485 412T527 514Q527 563 494 607T395 652H271Q237 652 230 645T222 612V366Z" />
<glyph unicode="C" glyph-name="C" horiz-adv-x="722" d="M56 342Q56 493 159 599T404 705Q448 705 487 689T544 659T588 619L638 693Q646 705 654 705T663 701T665 681V444Q665 428 663 424T649 420Q639 420 637 423T633 437Q618 545 558 609T415 674Q391 674
365 669T300 643T232 588T181 490T159 341Q159 257 180 193T231 95T299 41T365 15T416 9Q502 9 568 70T640 234Q641 239 641 241T642 245T645 249T652 250Q665 250 665 233Q665 138 592 58T404 -22Q262 -22 159 83T56 342Z" />
<glyph unicode="D" glyph-name="D" horiz-adv-x="763" d="M35 0V31H59Q113 31 125 40T138 78V605Q138 634 126 643T59 652H35V683H401Q529 683 618 581T707 336Q707 196 618 98T401 0H35ZM224 71Q224 45 231 38T273 31H374Q440 31 484 58T552 116Q607 191 607
336Q607 488 555 559Q488 652 373 652H273Q239 652 232 645T224 612V71Z" />
<glyph unicode="E" glyph-name="E" horiz-adv-x="680" d="M33 0V31H57Q111 31 123 40T136 78V602Q136 631 124 640T57 649H33V680H596L624 455H599Q592 512 583 545T553 603T496 639T403 649H274Q240 649 233 642T225 609V369H315Q384 369 403 393T423 486H448V221H423Q423
289 404 313T315 338H225V71Q225 45 232 38T274 31H407Q450 31 481 36T535 56T572 86T597 131T614 187T627 258H652L610 0H33Z" />
<glyph unicode="F" glyph-name="F" horiz-adv-x="652" d="M33 0V31H57Q111 31 123 40T136 78V602Q136 631 124 640T57 649H33V680H582L610 455H585Q578 512 569 544T540 603T485 639T394 649H274Q240 649 233 642T225 609V356H311Q379 356 398 380T417 473H442V208H417Q417
277 398 301T311 325H225V79Q225 58 228 50T253 37T320 31H353V0Q317 3 185 3Q68 3 33 0Z" />
<glyph unicode="G" glyph-name="G" horiz-adv-x="784" d="M56 190T56 342T159 599T404 705Q439 705 469 697T523 673T559 647T589 619L639 693Q647 705 655 705T664 701T666 681V444Q666 428 664 424T650 420Q640 420 638 423T634 437Q619 545 559 609T416 674Q392
674 366 669T300 643T232 589T181 491T159 342Q159 258 180 194T232 96T301 41T369 15T422 9Q439 9 459 12T509 27T558 64T577 130V194Q577 224 563 233T484 242H452V273Q488 270 613 270Q624 270 735 273V242Q687 242 677 235T666 198V24Q666 1 657 1Q649 1 626
23T593 63Q569 21 517 0T406 -22Q262 -22 159 84Z" />
<glyph unicode="H" glyph-name="H" horiz-adv-x="750" d="M33 0V31H57Q111 31 123 40T136 78V605Q136 634 124 643T57 652H33V683Q68 680 181 680Q293 680 328 683V652H304Q250 652 238 643T225 605V371H524V605Q524 634 512 643T445 652H421V683Q456 680 569
680Q681 680 716 683V652H692Q638 652 626 643T613 605V78Q613 49 625 40T692 31H716V0Q681 3 568 3Q456 3 421 0V31H445Q499 31 511 40T524 78V340H225V78Q225 49 237 40T304 31H328V0Q293 3 180 3Q68 3 33 0Z" />
<glyph unicode="I" glyph-name="I" horiz-adv-x="361" d="M28 0V31H54Q110 31 123 40T136 78V605Q136 634 123 643T54 652H28V683Q63 680 181 680Q298 680 333 683V652H307Q251 652 238 643T225 605V78Q225 49 238 40T307 31H333V0Q298 3 180 3Q63 3 28 0Z" />
<glyph unicode="J" glyph-name="J" horiz-adv-x="513" d="M41 112Q41 142 58 156T97 170Q119 170 136 155T153 114Q153 58 89 58Q125 0 199 0Q241 0 271 41T302 148V604Q302 625 298 633T273 646T204 652H168V683Q206 680 336 680Q399 680 465 683V652Q414 652
401 646T388 611V167Q388 131 387 123Q378 64 327 21T201 -22Q134 -22 88 17T41 112Z" />
<glyph unicode="K" glyph-name="K" horiz-adv-x="777" d="M33 0V31H57Q111 31 123 40T136 78V605Q136 634 124 643T57 652H33V683Q68 680 181 680Q293 680 328 683V652H304Q250 652 238 643T225 605V287L538 586Q556 602 556 619Q556 625 554 631T540 645T510
652V683Q544 680 637 680Q696 680 722 683V652Q639 651 580 592L400 419L631 79Q652 48 672 40T736 31V0Q673 3 621 3Q513 3 478 0V31Q537 31 537 61Q537 72 522 95L341 363L225 253V78Q225 49 237 40T304 31H328V0Q293 3 180 3Q68 3 33 0Z" />
<glyph unicode="L" glyph-name="L" horiz-adv-x="625" d="M33 0V31H57Q111 31 123 40T136 78V605Q136 634 124 643T57 652H33V683Q68 680 185 680Q317 680 353 683V652H320Q274 652 253 646T229 632T225 604V71Q225 45 232 38T274 31H356Q407 31 443 46T499 80T532
135T549 194T557 258H582L554 0H33Z" />
<glyph unicode="M" glyph-name="M" horiz-adv-x="916" d="M37 0V31Q73 31 96 38T127 58T138 81T140 105V605Q140 634 128 643T61 652H37V683H206Q224 683 229 680T241 661L458 101L677 664Q682 678 686 680T710 683H879V652H855Q801 652 789 643T776 605V78Q776
49 788 40T855 31H879V0Q842 3 736 3Q629 3 592 0V31H616Q670 31 682 40T695 78V652H694L448 19Q441 0 430 0Q418 0 410 22L169 644H168V105Q168 90 170 81T180 59T212 38T271 31V0Q166 3 154 3T37 0Z" />
<glyph unicode="N" glyph-name="N" horiz-adv-x="750" d="M33 0V31Q69 31 92 38T123 58T134 81T136 105V627Q136 641 133 644T112 650Q82 652 62 652H33V683H203Q217 683 221 681T232 670L585 151V578Q585 593 583 602T573 624T541 645T482 652V683Q587 680 599
680T716 683V652Q680 652 657 645T626 625T615 602T613 578V26Q613 10 611 5T599 0Q592 0 582 13L174 613Q170 619 164 625V105Q164 90 166 81T176 59T208 38T267 31V0Q162 3 150 3T33 0Z" />
<glyph unicode="O" glyph-name="O" horiz-adv-x="777" d="M56 339Q56 492 154 598T388 705Q525 705 623 598T721 339Q721 188 623 83T388 -22Q253 -22 155 82T56 339ZM159 353Q159 260 181 189T238 80T312 23T389 4Q427 4 464 22T537 78T595 187T618 353Q618 426
603 485T563 579T507 638T446 671T388 680Q353 680 317 665T243 615T183 513T159 353Z" />
<glyph unicode="P" glyph-name="P" horiz-adv-x="680" d="M35 0V31H59Q113 31 125 40T138 78V605Q138 634 126 643T59 652H35V683H388Q489 683 556 628T624 497Q624 423 556 370T396 316H227V78Q227 49 239 40T306 31H330V0Q295 3 182 3Q70 3 35 0ZM224 342H362Q407
342 439 354T487 382T510 423T520 462T521 497Q521 519 520 533T511 572T487 612T440 640T362 652H273Q239 652 232 645T224 612V342Z" />
<glyph unicode="Q" glyph-name="Q" horiz-adv-x="777" d="M56 339Q56 492 154 598T388 705Q525 705 623 598T721 339Q721 228 665 138T518 7Q537 -44 558 -67T614 -91T674 -69T705 -7Q707 11 716 11Q727 11 727 -10Q727 -34 722 -61T705 -120T668 -173T606 -194Q579
-194 559 -183T528 -157T507 -113T494 -64T484 -7Q436 -22 389 -22Q252 -22 154 83T56 339ZM156 339Q156 258 173 196T219 98T272 44T322 16Q308 44 308 64Q308 97 331 122T390 148Q461 148 503 42Q621 129 621 339Q621 430 599 499T540 606T466 662T388 680Q350
680 312 663T238 608T179 501T156 339ZM330 64Q330 53 333 41T351 16T389 3Q436 3 477 26Q458 126 390 126Q363 126 347 107T330 64Z" />
<glyph unicode="R" glyph-name="R" horiz-adv-x="736" d="M35 0V31H59Q113 31 125 40T138 78V605Q138 634 126 643T59 652H35V683H349Q458 683 534 630T610 503Q610 447 561 403T435 340Q534 306 557 224L570 144Q574 115 576 101T583 66T592 37T604 17T620 4T641
0Q664 0 683 20T707 89Q709 105 719 105Q732 105 732 88Q732 75 728 59T715 23T685 -9T637 -22Q559 -22 511 20Q491 38 482 61T472 103T470 163Q470 221 464 246T432 297Q397 331 339 331H224V78Q224 49 236 40T303 31H327V0Q291 3 181 3T35 0ZM224 353H335Q388
353 424 366T477 402T500 449T507 503Q507 538 499 564T474 606T440 632T397 646T352 651T305 652Q256 652 246 650Q235 649 231 644T225 632T224 612V353Z" />
<glyph unicode="S" glyph-name="S" horiz-adv-x="555" d="M56 2V202Q56 213 56 217T60 224T69 227Q80 227 81 217Q84 118 143 63Q201 9 301 9Q361 9 398 52T435 152Q435 206 404 244Q391 261 375 272T348 286T319 295Q195 325 187 328Q128 348 92 398T56 511Q56
591 112 648T251 705Q292 705 326 692T375 668T411 635L446 692Q454 705 461 705Q469 705 470 701T472 681V480Q472 469 472 465T468 459T459 456Q449 456 447 468Q419 677 252 677Q195 677 158 639T120 546Q120 502 147 466T221 419L349 388Q413 373 456 317T499
186Q499 101 444 40T302 -22Q240 -22 192 -2T118 48Q98 15 85 -4L82 -9Q74 -22 67 -22Q59 -22 58 -17T56 2Z" />
<glyph unicode="T" glyph-name="T" horiz-adv-x="722" d="M36 452L55 677H666L685 452H660Q656 497 653 523T641 573T622 610T591 631T545 643T480 646Q434 646 423 644Q411 641 408 633T405 606V79Q405 59 409 51T436 37T510 31H550V0Q509 3 360 3Q212 3 171
0V31H211Q262 31 285 37T312 51T316 79V606Q316 620 315 626T310 637T295 644T241 646Q202 646 176 644T130 632T100 610T81 574T69 523T61 452H36Z" />
<glyph unicode="U" glyph-name="U" horiz-adv-x="750" d="M33 652V683Q68 680 181 680Q293 680 328 683V652H304Q250 652 238 643T225 605V224Q225 157 243 111T291 45T343 17T390 9Q466 9 524 69T582 231V578Q582 593 580 602T570 624T538 645T479 652V683Q587
680 598 680Q608 680 716 683V652Q680 652 657 646T626 625T615 601T613 574V254Q613 205 610 185Q597 98 535 38T388 -22Q285 -22 211 50T136 228V605Q136 634 124 643T57 652H33Z" />
<glyph unicode="V" glyph-name="V" horiz-adv-x="750" d="M19 652V683Q127 680 146 680Q253 680 289 683V652Q207 652 207 623Q207 619 213 605L404 100L587 582Q592 597 592 602Q592 622 574 636T519 652V683Q597 680 633 680Q684 680 730 683V652Q646 651 621
585L398 -3Q394 -15 390 -18T374 -22Q364 -22 359 -18T349 0L117 614Q107 641 90 646T19 652Z" />
<glyph unicode="W" glyph-name="W" horiz-adv-x="1027" d="M18 652V683Q32 683 57 682T103 681T140 680Q246 680 282 683V652Q198 652 198 622Q198 615 200 609L361 117L500 546L478 616Q470 641 453 646T388 652V683Q402 683 427 682T473 681T510 680Q616 680
652 683V652Q568 652 568 622Q568 619 571 607L731 117L881 579Q886 594 886 599Q886 617 865 634T799 652V683Q877 680 918 680Q964 680 1009 683V652Q930 652 909 585L718 -2Q716 -10 715 -13T709 -19T698 -22Q685 -22 679 -3L513 506L348 -2Q346 -10 345 -13T339
-19T328 -22Q315 -22 309 -3L109 610Q100 639 87 645T18 652Z" />
<glyph unicode="X" glyph-name="X" horiz-adv-x="750" d="M24 0V31Q70 31 103 45T147 69T169 97L333 339L149 617Q135 638 116 645T56 652H37V683Q92 680 167 680Q278 680 313 683V652Q283 651 266 642T248 622Q248 618 255 607L384 414L498 583Q507 597 507 606Q507
624 491 637T445 652V683Q485 680 573 680Q584 680 602 680T645 682T684 683V652Q583 651 539 587L402 386L613 67Q628 45 647 38T707 31H726V0Q663 3 596 3Q485 3 450 0V31Q480 32 497 41T515 61Q515 62 510 72L352 311L210 101Q200 85 200 77Q200 61 216 47T263
31V0Q227 3 135 3Q132 3 24 0Z" />
<glyph unicode="Y" glyph-name="Y" horiz-adv-x="750" d="M11 652V683Q74 680 141 680Q253 680 289 683V652Q252 652 236 647T219 627Q219 620 226 610L407 315L572 583Q582 598 582 613Q582 630 568 641T525 652V683Q603 680 640 680Q692 680 738 683V652Q649
652 610 587L417 273V80Q417 49 429 40T497 31H520V0Q484 3 374 3T228 0V31H252Q306 31 318 40T331 78V273L121 615Q112 630 105 636T80 647T29 652H11Z" />
<glyph unicode="Z" glyph-name="Z" horiz-adv-x="611" d="M56 17Q56 26 63 37L452 652H295Q235 652 196 639T135 597T106 537T94 458H69L80 683H528Q537 683 540 683T548 681T553 676T554 667Q554 659 547 648L159 34H323Q377 34 415 45T475 75T510 125T527 188T535
267H560L543 0H82Q65 0 61 2T56 17Z" />
<glyph unicode="[" glyph-name="bracketleft" horiz-adv-x="278" d="M104 -250V750H255V727H171V-227H255V-250H104Z" />
<glyph unicode="\" glyph-name="backslash" horiz-adv-x="500" d="M57 736Q57 748 66 748T83 727L437 -218Q442 -233 442 -236Q442 -248 432 -248Q424 -248 415 -225L61 721Q57 731 57 736Z" />
<glyph unicode="]" glyph-name="bracketright" horiz-adv-x="278" d="M21 -227H105V727H21V750H172V-250H21V-227Z" />
<glyph unicode="^" glyph-name="asciicircum" horiz-adv-x="611" d="M117 484L304 628L492 484L477 463L304 575L132 463L117 484Z" />
<glyph unicode="_" glyph-name="underscore" horiz-adv-x="778" d="M84 -233T84 -213T114 -193H662Q692 -193 692 -213T664 -233H113Q84 -233 84 -213Z" />
<glyph unicode="`" glyph-name="grave" horiz-adv-x="500" d="M100 605Q100 618 110 630T135 642Q146 642 159 631T228 566Q262 532 285 510L270 490Q250 500 136 565L130 568Q125 571 123 572T115 578T108 585T103 594T100 605Z" />
<glyph unicode="a" glyph-name="a" horiz-adv-x="500" d="M42 95Q42 180 142 225Q202 254 326 261V298Q326 360 294 393T220 426Q147 426 112 380Q142 379 152 364T163 334Q163 314 151 301T117 288Q97 288 84 300T71 335Q71 384 115 416T222 448Q304 448 359
393Q376 376 384 354T394 318T395 275V75Q395 69 397 60T408 38T432 25Q468 25 468 89V145H493V89Q493 36 465 15T411 -6Q378 -6 357 18T333 76Q318 38 284 14T202 -11Q166 -11 132 -2T70 32T42 95ZM119 96Q119 59 145 35T209 11Q251 11 288 43T326 140V240Q215
236 167 192T119 96Z" />
<glyph unicode="b" glyph-name="b" horiz-adv-x="555" d="M28 652V683L172 694V377Q230 442 309 442Q395 442 458 376T521 216Q521 121 455 55T298 -11Q215 -11 167 62Q132 1 131 0H106V596Q106 633 93 642T28 652ZM175 114Q175 93 189 72Q229 11 294 11Q364 11
407 75Q438 123 438 217Q438 310 409 356Q369 420 304 420Q231 420 186 356Q175 340 175 320V114Z" />
<glyph unicode="c" glyph-name="c" horiz-adv-x="444" d="M34 121T34 216T96 379T251 448Q312 448 358 419T404 341Q404 319 391 307T358 294Q337 294 325 307T312 340Q312 349 315 357T329 375T359 386Q323 423 252 423Q201 423 159 375T117 218Q117 161 131
119T168 56T213 24T258 14Q356 14 389 119Q392 129 402 129Q415 129 415 119Q415 114 411 102T395 69T366 32T318 2T249 -11Q161 -11 98 55Z" />
<glyph unicode="d" glyph-name="d" horiz-adv-x="555" d="M34 215Q34 310 100 376T257 442Q333 442 383 380V596Q383 633 370 642T305 652V683L449 694V87Q449 50 462 41T527 31V0L380 -11V55Q328 -11 246 -11Q160 -11 97 55T34 215ZM117 214Q117 121 146 75Q186
11 251 11Q325 11 369 81Q380 98 380 118V323Q380 343 369 360Q328 420 261 420Q191 420 148 356Q117 308 117 214Z" />
<glyph unicode="e" glyph-name="e" horiz-adv-x="444" d="M28 220Q28 314 88 381T236 448Q324 448 369 391T415 252Q415 237 411 234T390 231H111Q111 129 141 81Q183 14 254 14Q264 14 275 16T311 26T356 58T389 117Q392 131 402 131Q415 131 415 119Q415 110
406 91T378 48T325 7T248 -11Q160 -11 94 55T28 220ZM112 252H349Q349 273 346 296T332 352T297 405T236 426Q220 426 203 419T164 396T129 342T112 252Z" />
<glyph unicode="f" glyph-name="f" horiz-adv-x="305" d="M33 400V431H112V546Q112 620 160 662T267 705Q306 705 331 684T357 635Q357 616 346 604T313 591Q293 591 282 603T270 634Q270 666 300 676Q285 683 267 683Q231 683 203 646T175 547V431H292V400H178V78Q178
49 190 40T254 31H275V0Q235 3 148 3Q136 3 117 3T73 1T34 0V31Q87 31 99 37T112 76V400H33Z" />
<glyph unicode="g" glyph-name="g" horiz-adv-x="500" d="M28 -79Q28 -47 52 -19T120 21Q76 49 76 110Q76 157 107 193Q60 232 60 296Q60 355 107 398T222 442Q282 442 328 406Q376 453 434 453Q460 453 472 437T485 404Q485 389 476 382T456 374Q444 374 436
382T427 403Q427 424 443 430Q440 431 433 431Q384 431 343 392Q384 354 384 295T337 193T222 149Q166 149 123 180Q106 160 106 133Q106 108 121 89T159 66Q166 65 234 65Q274 65 296 64T349 57T406 37Q471 1 471 -77Q471 -134 406 -170T249 -206Q157 -206 93
-170T28 -79ZM80 -79Q80 -120 128 -151T250 -183Q322 -183 370 -152T419 -79Q419 -49 402 -30T350 -4T291 5T221 7H162Q128 5 104 -20T80 -79ZM135 295Q135 172 222 172Q266 172 293 212Q309 239 309 296Q309 419 222 419Q178 419 151 379Q135 352 135 295Z" />
<glyph unicode="h" glyph-name="h" horiz-adv-x="555" d="M32 0V31Q85 31 97 37T110 76V596Q110 633 97 642T32 652V683L176 694V346H177Q193 382 229 412T321 442Q396 442 426 405Q448 380 452 352T457 252V61Q458 40 474 36T535 31V0Q433 3 423 3Q415 3 310
0V31Q363 31 375 37T388 76V309Q388 360 373 390T314 420Q262 420 221 377T179 260V76Q179 44 191 38T257 31V0Q155 3 145 3Q137 3 32 0Z" />
<glyph unicode="i" glyph-name="i" horiz-adv-x="277" d="M33 0V31Q86 31 98 37T111 76V345Q111 382 99 391T37 400V431L177 442V75Q177 45 187 38T247 31V0Q145 3 143 3Q129 3 33 0ZM75 616Q75 636 90 652T128 669T165 654T181 616T166 578T128 563Q105 563 90
579T75 616Z" />
<glyph unicode="j" glyph-name="j" horiz-adv-x="305" d="M104 594T104 616T119 653T157 669T194 654T210 616T195 579T157 563T120 578ZM-40 -125Q-40 -105 -28 -92T6 -79T39 -92T52 -125Q52 -143 42 -154T17 -170Q43 -183 71 -183Q94 -183 109 -170T132 -134T141
-92T144 -52V344Q144 381 130 390T58 400V431L210 442V-50Q210 -117 170 -161T73 -205Q27 -205 -6 -184T-40 -125Z" />
<glyph unicode="k" glyph-name="k" horiz-adv-x="527" d="M28 0V31Q81 31 93 37T106 76V596Q106 633 93 642T28 652V683L172 694V214L313 336Q335 355 335 375Q335 398 306 400V431Q348 428 418 428Q459 428 488 431V400Q425 397 362 346Q348 335 315 306T281
274Q281 273 282 271T285 266T287 263L414 84Q440 48 459 40T511 31V0Q468 3 424 3Q400 3 316 0V31Q352 31 352 54Q352 70 271 182Q265 190 252 207Q240 225 233 234L169 179V76Q169 44 181 38T247 31V0Q187 3 137 3Q127 3 28 0Z" />
<glyph unicode="l" glyph-name="l" horiz-adv-x="277" d="M33 0V31Q86 31 98 37T111 76V596Q111 633 98 642T33 652V683L177 694V76Q177 44 189 38T255 31V0Q243 0 218 1T174 2T144 3Q132 3 33 0Z" />
<glyph unicode="m" glyph-name="m" horiz-adv-x="833" d="M32 0V31Q85 31 97 37T110 76V344Q110 381 97 390T32 400V431L173 442V337Q220 442 321 442Q438 442 454 344Q471 382 507 412T599 442Q674 442 704 405Q726 380 730 352T735 252V61Q736 40 752 36T813
31V0Q711 3 701 3Q693 3 588 0V31Q641 31 653 37T666 76V309Q666 360 651 390T592 420Q540 420 499 377T457 260V76Q457 44 469 38T535 31V0Q433 3 423 3Q415 3 310 0V31Q363 31 375 37T388 76V309Q388 360 373 390T314 420Q262 420 221 377T179 260V76Q179 44
191 38T257 31V0Q155 3 145 3Q137 3 32 0Z" />
<glyph unicode="n" glyph-name="n" horiz-adv-x="555" d="M32 0V31Q85 31 97 37T110 76V344Q110 381 97 390T32 400V431L173 442V337Q220 442 321 442Q396 442 426 405Q448 380 452 352T457 252V61Q458 40 474 36T535 31V0Q433 3 423 3Q415 3 310 0V31Q363 31
375 37T388 76V309Q388 360 373 390T314 420Q262 420 221 377T179 260V76Q179 44 191 38T257 31V0Q155 3 145 3Q137 3 32 0Z" />
<glyph unicode="o" glyph-name="o" horiz-adv-x="500" d="M28 119T28 214T92 378T250 448Q341 448 406 379T471 214Q471 120 406 55T249 -11Q160 -11 94 54ZM111 222Q111 125 136 81Q175 14 250 14Q287 14 318 34T366 88Q388 132 388 222Q388 318 362 361Q323
426 249 426Q217 426 186 409T135 359Q111 315 111 222Z" />
<glyph unicode="p" glyph-name="p" horiz-adv-x="555" d="M28 -163Q81 -163 93 -157T106 -118V350Q106 383 94 391T28 400V431L172 442V376Q232 442 312 442Q397 442 459 376T521 216Q521 121 455 55T298 -11Q248 -11 215 14T175 59V50V-118Q175 -150 187 -156T253
-163V-194Q148 -191 140 -191Q130 -191 28 -194V-163ZM175 114Q175 99 177 94T189 72Q229 11 294 11Q351 11 394 69T438 216Q438 300 399 358T304 417Q265 417 231 396T175 337V114Z" />
<glyph unicode="q" glyph-name="q" horiz-adv-x="527" d="M34 215Q34 311 100 376T255 442Q292 442 322 424T366 388T389 351L427 442H449V-118Q449 -150 461 -156T527 -163V-194Q422 -191 414 -191Q404 -191 302 -194V-163Q355 -163 367 -157T380 -118V61Q325
-11 247 -11Q160 -11 97 55T34 215ZM117 215Q117 129 156 70T251 11Q305 11 343 52Q383 96 383 136V277Q383 324 350 370T261 417Q204 417 161 360T117 215Z" />
<glyph unicode="r" glyph-name="r" horiz-adv-x="391" d="M28 0V31Q81 31 93 37T106 76V344Q106 381 93 390T28 400V431L167 442V332Q181 375 211 408T290 442Q322 442 343 424T364 381Q364 359 351 348T321 337Q303 337 291 348T278 380Q278 392 283 401T293
414T301 419Q299 420 290 420Q235 420 204 365T172 232V78Q172 49 184 40T248 31H269V0Q229 3 142 3Q130 3 111 3T67 1T28 0Z" />
<glyph unicode="s" glyph-name="s" horiz-adv-x="394" d="M33 13V145Q33 156 33 160T37 167T46 170Q53 170 55 167T60 153Q75 84 107 48T199 11Q255 11 283 36T312 102Q312 175 208 194Q148 206 123 214T76 240Q33 275 33 325T71 411T193 448Q249 448 287 420Q298
429 304 436Q317 448 324 448Q332 448 333 443T335 424V323Q335 312 335 308T331 302T322 299Q311 299 310 308Q302 429 193 429Q134 429 108 407T81 353Q81 336 89 323T107 303T137 288T169 279T204 271Q284 256 318 223Q360 181 360 128Q360 69 320 29T199 -11Q134
-11 89 32Q83 26 79 21T73 14T71 11T69 9Q49 -11 44 -11Q36 -11 35 -6T33 13Z" />
<glyph unicode="t" glyph-name="t" horiz-adv-x="388" d="M19 400V422Q65 424 95 456T136 529T148 615H173V431H316V400H173V122Q173 14 240 14Q269 14 288 43T307 126V181H332V124Q332 70 307 30T233 -11Q215 -11 197 -7T156 10T119 51T104 124V400H19Z" />
<glyph unicode="u" glyph-name="u" horiz-adv-x="555" d="M32 400V431L179 442V110Q179 86 181 72T191 42T218 19T267 11Q321 11 354 55T388 166V344Q388 381 375 390T310 400V431L457 442V87Q457 50 470 41T535 31V0L391 -11V79Q349 -11 262 -11Q218 -11 188
0T143 25T120 66T111 109T110 158V308Q110 376 100 388T32 400Z" />
<glyph unicode="v" glyph-name="v" horiz-adv-x="527" d="M19 400V431Q64 428 116 428Q135 428 225 431V400Q168 400 168 374Q168 370 174 357L286 78L388 333Q394 350 394 357Q394 374 383 386T346 400V431Q397 428 433 428Q474 428 508 431V400Q478 400 457
387T430 362T416 333L285 8Q277 -11 264 -11Q255 -11 252 -8T243 8L99 363Q89 388 77 394T19 400Z" />
<glyph unicode="w" glyph-name="w" horiz-adv-x="722" d="M18 400V431Q72 428 111 428Q130 428 220 431V400Q161 400 161 373Q161 367 166 355L261 88L347 330Q329 379 324 385Q312 400 261 400V431Q306 428 350 428Q367 428 454 431V400Q395 400 395 373Q395
369 400 354L499 75L590 331Q595 344 595 352Q595 374 580 386T537 400V431Q594 428 630 428Q670 428 703 431V400Q641 398 619 336L502 8Q491 -10 482 -11Q469 -11 462 8L360 292L259 9Q255 -3 252 -7T239 -11T226 -6T218 11L92 365Q83 388 70 394T18 400Z" />
<glyph unicode="x" glyph-name="x" horiz-adv-x="527" d="M12 0V31Q90 31 140 91Q140 91 234 210L135 339Q100 384 85 392T17 400V431Q58 428 112 428Q142 428 220 431V400Q185 398 185 375Q185 367 194 357L272 256L334 334Q349 352 349 369Q349 397 320 400V431Q359
428 416 428Q459 428 498 431V400Q422 398 379 348Q360 327 287 235L421 62Q437 41 455 36T516 31V0Q471 3 420 3Q402 3 312 0V31Q330 32 339 40T348 56Q348 60 327 89L251 189Q175 99 165 78Q161 69 161 62Q161 35 190 31V0Q118 3 95 3Q51 3 12 0Z" />
<glyph unicode="y" glyph-name="y" horiz-adv-x="527" d="M19 -124Q19 -103 31 -92T61 -81Q79 -81 91 -92T103 -123Q103 -160 64 -165Q83 -183 111 -183Q141 -183 165 -161T199 -118T225 -59Q239 -29 250 0L100 365Q90 389 75 394T19 400V431Q64 428 116 428Q147
428 225 431V400Q169 400 169 374Q169 371 175 356L286 87L387 333Q393 347 393 357Q393 398 346 400V431Q412 428 433 428Q474 428 508 431V400Q441 400 415 336L239 -91Q191 -205 111 -205Q73 -205 46 -182T19 -124Z" />
<glyph unicode="z" glyph-name="z" horiz-adv-x="444" d="M28 14Q28 21 37 32L316 409H202Q123 409 98 380T67 270H42L53 431H373Q384 431 388 431T396 427T399 418T390 401L112 25H230Q313 25 341 59T376 187H401L384 0H54Q38 0 33 2T28 14Z" />
<glyph unicode="{" glyph-name="braceleft" horiz-adv-x="500" d="M73 246T73 250T74 256T79 260T86 261T97 263T111 265Q147 272 176 296T212 357Q214 367 214 386V604Q214 656 239 686Q266 719 314 734T407 750Q425 750 425 739Q425 734 422 732T414 728T402
726T386 724T369 720Q284 692 284 610V385Q284 280 165 250Q284 220 284 121V-101Q284 -125 286 -137Q293 -171 324 -196T401 -226Q425 -229 425 -239Q425 -250 408 -250Q337 -250 280 -220T215 -131Q214 -121 214 -102V117Q214 150 201 175T167 212T132 229T105
237Q102 237 97 237T88 238T81 240T75 243Z" />
<glyph unicode="|" glyph-name="bar" horiz-adv-x="278" d="M118 -219V712Q118 749 138 749T158 719V-212Q158 -249 138 -249T118 -219Z" />
<glyph unicode="}" glyph-name="braceright" horiz-adv-x="500" d="M73 -239Q73 -232 79 -230T101 -226T129 -220Q214 -192 214 -110V115Q214 220 333 250Q214 280 214 378V601Q214 625 212 637Q205 671 174 696T97 726Q96 726 92 726T85 727T80 729T75 732T73
738Q73 750 90 750Q161 750 218 720T283 631Q284 621 284 602V383Q284 350 297 325T330 288T365 271T393 263Q396 263 401 263T410 261T417 259T423 256T425 250Q425 246 424 244T418 240T410 239T399 237T386 235Q350 228 321 204T286 143Q284 133 284 114V-104Q284
-124 283 -136T270 -169T236 -208Q179 -250 91 -250Q73 -250 73 -239Z" />
<glyph unicode="~" glyph-name="asciitilde" horiz-adv-x="611" d="M83 588Q85 590 96 603T111 620T125 634T143 648T161 658T183 666T208 668Q243 668 310 644T412 620Q444 620 465 632T510 668L527 653Q526 651 516 640T504 625T491 613T477 600T462 590T444
581T425 577T402 574Q367 574 300 597T198 621Q166 621 145 610T100 574L83 588Z" />
</font>
</defs>
</svg>
